<svg id="_4771386c-1c5b-4872-9ac2-486c3b56cfa9" data-name="4771386c-1c5b-4872-9ac2-486c3b56cfa9" xmlns="http://www.w3.org/2000/svg" xmlns:xlink="http://www.w3.org/1999/xlink" viewBox="0 0 862.84 574"><defs><style>.cls-1{fill:url(#linear-gradient);}.cls-2,.cls-5{fill:#4c2822;}.cls-3{fill:#fdb87d;}.cls-4{opacity:0.05;}.cls-12,.cls-18,.cls-25,.cls-30,.cls-4,.cls-9{isolation:isolate;}.cls-5{stroke:#6b5144;}.cls-5,.cls-9{stroke-miterlimit:10;}.cls-6{opacity:0.7;}.cls-7{fill:url(#linear-gradient-2);}.cls-8{fill:#4db6ac;}.cls-9{fill:none;stroke:#535461;}.cls-25,.cls-26,.cls-30,.cls-9{opacity:0.6;}.cls-10,.cls-25{fill:#940c00;}.cls-11{fill:url(#linear-gradient-3);}.cls-12,.cls-18{opacity:0.1;}.cls-13{fill:#e0e0e0;}.cls-14{fill:url(#linear-gradient-4);}.cls-15,.cls-18{fill:#535461;}.cls-16{fill:#fff;}.cls-17{fill:#eee;}.cls-19{opacity:0.5;}.cls-20{fill:url(#linear-gradient-5);}.cls-21{fill:#f5f5f5;}.cls-22{fill:url(#linear-gradient-6);}.cls-23{fill:url(#linear-gradient-7);}.cls-24{fill:url(#linear-gradient-8);}.cls-27{fill:#bdbdbd;}.cls-28{fill:url(#linear-gradient-9);}.cls-29{fill:url(#linear-gradient-10);}.cls-30{fill:#3ad29f;}.cls-31{fill:url(#linear-gradient-11);}.cls-32{fill:#f2f2f2;}.cls-33{fill:url(#linear-gradient-12);}.cls-34{fill:#69f0ae;}</style><linearGradient id="linear-gradient" x1="491.77" y1="-73.09" x2="491.77" y2="300.25" gradientTransform="matrix(1, 0, 0, -1, -168.58, 413)" gradientUnits="userSpaceOnUse"><stop offset="0" stop-color="gray" stop-opacity="0.25"/><stop offset="0.54" stop-color="gray" stop-opacity="0.12"/><stop offset="1" stop-color="gray" stop-opacity="0.1"/></linearGradient><linearGradient id="linear-gradient-2" x1="211.11" y1="-63.26" x2="291.82" y2="-63.26" xlink:href="#linear-gradient"/><linearGradient id="linear-gradient-3" x1="743.56" y1="-132.81" x2="743.56" y2="-71.8" xlink:href="#linear-gradient"/><linearGradient id="linear-gradient-4" x1="322.8" y1="32.84" x2="322.8" y2="190.94" gradientTransform="matrix(1, 0, 0, -1, 0, 576)" xlink:href="#linear-gradient"/><linearGradient id="linear-gradient-5" x1="519.12" y1="452.32" x2="519.12" y2="546.68" gradientTransform="matrix(1, 0, 0, -1, 0, 576)" xlink:href="#linear-gradient"/><linearGradient id="linear-gradient-6" x1="534.56" y1="430.52" x2="534.56" y2="524.88" gradientTransform="matrix(1, 0, 0, -1, 0, 576)" xlink:href="#linear-gradient"/><linearGradient id="linear-gradient-7" x1="656.13" y1="456.48" x2="656.13" y2="510.6" gradientTransform="matrix(1, 0, 0, -1, 0, 576)" xlink:href="#linear-gradient"/><linearGradient id="linear-gradient-8" x1="824.7" y1="324.19" x2="824.7" y2="339.87" xlink:href="#linear-gradient"/><linearGradient id="linear-gradient-9" x1="771.52" y1="413.64" x2="771.52" y2="557.96" gradientTransform="matrix(1, 0, 0, -1, 0, 576)" xlink:href="#linear-gradient"/><linearGradient id="linear-gradient-10" x1="940.68" y1="353.43" x2="940.68" y2="374.05" xlink:href="#linear-gradient"/><linearGradient id="linear-gradient-11" x1="674.92" y1="313.09" x2="674.92" y2="373.04" gradientTransform="matrix(1, 0, 0, -1, 0, 576)" xlink:href="#linear-gradient"/><linearGradient id="linear-gradient-12" x1="637.96" y1="320.73" x2="637.96" y2="395.03" gradientTransform="matrix(1, 0, 0, -1, 0, 576)" xlink:href="#linear-gradient"/></defs><title>header-img</title><path class="cls-1" d="M423.93,396.45c-6.7-24.31-43.89-42.23-72.91-46.86V337.91l1.6-.62a25.83,25.83,0,0,0-1.39-6.84A70.4,70.4,0,0,0,382.09,306a79.35,79.35,0,0,0-15.67-122.3,15.57,15.57,0,0,0-7-28.7,30.39,30.39,0,0,0-47.31-35.31,30.38,30.38,0,0,1,44.65,26.83v.79a30.39,30.39,0,1,0-58.9,11.37,15.2,15.2,0,0,0-10,22.32,79.36,79.36,0,0,0-19.4,126.18A70.44,70.44,0,0,0,297,329.86v19.47c-29.33,4.19-68,22.44-74.69,47.35-5.88,21.71-12.16,45.55-15.28,59.55C233.84,475,290,486.09,325.22,486.09c33.45,0,88.12-10,114.1-27.1C436.54,443.61,430.07,418.72,423.93,396.45ZM370.31,171.87v.82a15.2,15.2,0,0,0-12.62-14.11c.29-.5.57-1,.84-1.52A15.19,15.19,0,0,1,370.31,171.87Z"/><path d="M325.2,480.77c32.5,0,85.61-9.69,110.85-26.33-2.73-14.94-9-39.12-15-60.76C413.46,366.12,365.54,347,337,347H309.42c-28.67,0-76.66,19.22-84.16,46.89-5.71,21.09-11.84,44.26-14.84,57.86C236.42,470,291,480.77,325.2,480.77Z"/><circle class="cls-2" cx="324.68" cy="252.59" r="77.09"/><path class="cls-3" d="M303.87,306.18H344.2a6,6,0,0,1,6,6v41.24a24.77,24.77,0,0,1-24.78,24.78h-2.85a24.77,24.77,0,0,1-24.78-24.78v-41.2a6,6,0,0,1,6-6Z"/><path class="cls-4" d="M326.42,341.1a67.91,67.91,0,0,0,25.34-4.88,25.11,25.11,0,0,0-25-23.48h-2.15a25.12,25.12,0,0,0-25,22.86A68.05,68.05,0,0,0,326.42,341.1Z"/><circle class="cls-3" cx="324.82" cy="266.34" r="68.2"/><circle class="cls-2" cx="301.72" cy="177.14" r="14.76"/><circle class="cls-2" cx="354.2" cy="177.14" r="14.76"/><circle class="cls-2" cx="326.32" cy="152.54" r="29.52"/><path class="cls-2" d="M357.48,159.1a14.64,14.64,0,0,0-8.24,2.51,14.76,14.76,0,0,1,13.18,26.14,14.75,14.75,0,0,0-5-28.65Z"/><path class="cls-2" d="M331.24,118.09a29.37,29.37,0,0,0-18.82,6.74,29.52,29.52,0,0,1,32.63,48.85,29.52,29.52,0,0,0-13.86-55.59Z"/><path class="cls-5" d="M275.47,205s8.2,54.13,111.54,24.6l-50.85-44.29Z"/><g class="cls-6"><path class="cls-7" d="M122.77,456.44a15.66,15.66,0,0,0-6.21-16.62,46.82,46.82,0,0,1-4.16-2.69,15.14,15.14,0,0,1-4.17-7c-2.09-6.26-2.74-13.29-6.4-18.95C98.5,406,92,404.52,86.27,404a12.38,12.38,0,0,0-6.21.58c-3.2,1.45-4.73,5.23-4.88,8.75s.77,7,1,10.49-.4,7.37-3,9.75-6.3,2.66-9.73,3.14A64.93,64.93,0,0,0,50.28,440c-3.58,1.3-7.57,3.66-7.74,7.47-.14,3.11,2.37,5.6,4.26,8.07A20.63,20.63,0,0,1,50.89,472c-1.22,5.8-5.29,10.77-6,16.65a7.23,7.23,0,0,0,.53,4.35,8,8,0,0,0,2.23,2.36c2.21,1.71,4.68,3.08,6.78,4.94,4.37,3.87,6.73,9.48,8.55,15,.18.53.33,1.07.5,1.61H59.19a15.92,15.92,0,0,0-15.88,15.88h0a15.92,15.92,0,0,0,15.88,15.88h42.86a15.92,15.92,0,0,0,15.88-15.88h0A15.93,15.93,0,0,0,102.08,517H90.33c2.78-3.72,5.68-7.22,10-8.65s9.48-.59,12.84-3.58a10.05,10.05,0,0,0,2.91-5.77,17.19,17.19,0,0,0-1.88-11.42c-1.35-2.41-3.33-4.6-3.76-7.33a10.84,10.84,0,0,1,1.62-6.77C115.28,467.52,121,463,122.77,456.44Z"/></g><path class="cls-8" d="M86.1,407.47a11.66,11.66,0,0,0-5.91.55c-3,1.38-4.5,5-4.64,8.33s.73,6.65,1,10-.38,7-2.84,9.28-6,2.53-9.27,3a61.07,61.07,0,0,0-12.56,3.12c-3.41,1.24-7.21,3.48-7.37,7.11-.13,3,2.26,5.33,4.06,7.69a19.65,19.65,0,0,1,3.9,15.65c-1.16,5.52-5,10.26-5.74,15.86a6.87,6.87,0,0,0,.56,4.19,7.71,7.71,0,0,0,2.12,2.25c2.11,1.63,4.46,2.94,6.45,4.7,4.16,3.68,6.41,9,8.15,14.31a115.55,115.55,0,0,1,4,15.87c3.58-2.3,8.21-2.27,12-4.15,8.14-4,10.88-15.55,19.47-18.43,4.07-1.36,9-.56,12.23-3.41a9.6,9.6,0,0,0,2.78-5.5A16.38,16.38,0,0,0,112.68,487c-1.29-2.3-3.17-4.38-3.58-7a10.31,10.31,0,0,1,1.54-6.45c3.09-5.62,8.55-10,10.22-16.17a14.93,14.93,0,0,0-5.92-15.82,45.2,45.2,0,0,1-4-2.56,14.42,14.42,0,0,1-4-6.66c-2-6-2.61-12.65-6.1-18C97.75,409.39,91.58,408,86.1,407.47Z"/><path class="cls-9" d="M86,407.67S93.6,509,74,526.35"/><rect class="cls-10" x="45.23" y="515.01" width="71.05" height="30.24" rx="14.3" ry="14.3"/><path class="cls-9" d="M44.42,447s19.33-2.26,42.92,12.1"/><path class="cls-9" d="M87,471.17A50,50,0,0,1,120.81,450"/><path class="cls-9" d="M46.36,488.18s26.79-4.54,39.1,3"/><path class="cls-9" d="M83.93,501.59a44.77,44.77,0,0,1,29.8-1.19"/><g class="cls-6"><path class="cls-11" d="M595.13,495.7V484.8H540.66v50.39a10.61,10.61,0,0,0,10.62,10.62h33.23a10.61,10.61,0,0,0,10.62-10.62V524a14.17,14.17,0,0,0,0-28.33Zm0,22.88V501.14a8.72,8.72,0,1,1,.59,17.43h-.59Z"/></g><path class="cls-10" d="M593.42,497.4a12.93,12.93,0,1,0,12.93,12.93h0A12.93,12.93,0,0,0,593.42,497.4Zm0,20.89a8,8,0,1,1,8-8,8,8,0,0,1-8,8Z"/><path class="cls-12" d="M593.42,497.4a12.93,12.93,0,1,0,12.93,12.93h0A12.93,12.93,0,0,0,593.42,497.4Zm0,20.89a8,8,0,1,1,8-8,8,8,0,0,1-8,8Z"/><path class="cls-10" d="M543.64,487.45h49.74v46a9.76,9.76,0,0,1-9.75,9.75H553.39a9.76,9.76,0,0,1-9.75-9.75h0v-46Z"/><rect class="cls-13" y="543.16" width="645.61" height="21.88"/><g class="cls-6"><rect class="cls-14" x="185.52" y="385.06" width="274.56" height="158.1" rx="14.5" ry="14.5"/></g><rect class="cls-15" x="190.5" y="387.98" width="264.61" height="155.18" rx="26.84" ry="26.84"/><circle class="cls-16" cx="322.8" cy="465.57" r="8.95"/><rect class="cls-13" x="27.36" y="565.05" width="590.89" height="8.95"/><rect class="cls-12" x="27.36" y="565.05" width="590.89" height="2.98"/><path class="cls-12" d="M584.42,487.45v46a9.7,9.7,0,0,1-9.7,9.7h5a9.7,9.7,0,0,0,9.7-9.7h0v-46Z"/><path class="cls-17" d="M553.42,450.37a2.92,2.92,0,0,0-2.2,1.12c-.65,1.18.53,2.52,1.61,3.33a21.8,21.8,0,0,1,5.45,5.07c1.36,2.07,1.78,5,.3,7-1.93,2.62-6.55,3.19-7,6.41-.29,2.07,1.5,3.84,3.32,4.88,4.48,2.57,10.26,3.25,13.5,7.27,1.34-2.76,4.35-4.36,7.34-5s6.1-.63,9.14-1.09a3.15,3.15,0,0,0,2.54-1.36c.85-1.72-1.57-3.79-.73-5.51.64-1.32,2.5-1.21,3.86-1.74,2.22-.86,3.13-3.71,2.5-6s-2.41-4.09-4.28-5.56c-5-4-11.1-6.29-17.23-8-2.85-.78-6.2-2-9.16-2.12S556.28,449.89,553.42,450.37Z"/><rect class="cls-18" x="428.37" width="434.48" height="297.67"/><g class="cls-19"><rect class="cls-20" x="467.98" y="29.32" width="102.28" height="94.36" rx="4.5" ry="4.5"/></g><rect class="cls-21" x="469.23" y="30.05" width="99.92" height="92.07" rx="4.5" ry="4.5"/><rect class="cls-10" x="476.93" y="45.21" width="16.85" height="15.17" rx="4.5" ry="4.5"/><rect class="cls-13" x="498.84" y="45.21" width="66.99" height="1.69" rx="0.8" ry="0.8"/><rect class="cls-13" x="498.84" y="50.27" width="66.99" height="1.69" rx="0.8" ry="0.8"/><rect class="cls-13" x="475.25" y="68.62" width="90.58" height="1.69" rx="0.8" ry="0.8"/><rect class="cls-13" x="475.25" y="73.67" width="90.58" height="1.69" rx="0.8" ry="0.8"/><rect class="cls-13" x="475.25" y="80.41" width="90.58" height="1.69" rx="0.8" ry="0.8"/><rect class="cls-13" x="475.25" y="85.47" width="52.24" height="1.69" rx="0.8" ry="0.8"/><rect class="cls-13" x="475.25" y="92.19" width="90.58" height="1.69" rx="0.8" ry="0.8"/><rect class="cls-13" x="475.25" y="97.25" width="90.58" height="1.69" rx="0.8" ry="0.8"/><rect class="cls-13" x="475.25" y="103.99" width="90.58" height="1.69" rx="0.8" ry="0.8"/><rect class="cls-13" x="475.25" y="109.04" width="52.24" height="1.69" rx="0.8" ry="0.8"/><g class="cls-19"><rect class="cls-22" x="483.42" y="51.12" width="102.28" height="94.36" rx="4.5" ry="4.5"/></g><rect class="cls-16" x="484.67" y="51.85" width="99.92" height="92.07" rx="4.5" ry="4.5"/><rect class="cls-10" x="492.37" y="67.02" width="16.85" height="15.17" rx="4.5" ry="4.5"/><rect class="cls-13" x="514.27" y="67.02" width="66.99" height="1.69" rx="0.8" ry="0.8"/><rect class="cls-13" x="514.27" y="72.07" width="66.99" height="1.69" rx="0.8" ry="0.8"/><rect class="cls-13" x="490.68" y="90.42" width="90.58" height="1.69" rx="0.8" ry="0.8"/><rect class="cls-13" x="490.68" y="95.48" width="90.58" height="1.69" rx="0.8" ry="0.8"/><rect class="cls-13" x="490.68" y="102.22" width="90.58" height="1.69" rx="0.8" ry="0.8"/><rect class="cls-13" x="490.68" y="107.27" width="52.24" height="1.69" rx="0.8" ry="0.8"/><rect class="cls-13" x="490.68" y="114" width="90.58" height="1.69" rx="0.8" ry="0.8"/><rect class="cls-13" x="490.68" y="119.05" width="90.58" height="1.69" rx="0.8" ry="0.8"/><rect class="cls-13" x="490.68" y="125.79" width="90.58" height="1.69" rx="0.8" ry="0.8"/><rect class="cls-13" x="490.68" y="130.85" width="52.24" height="1.69" rx="0.8" ry="0.8"/><rect class="cls-23" x="627.96" y="65.4" width="56.33" height="54.12"/><rect class="cls-21" x="628.85" y="66.72" width="54.56" height="51.69"/><g class="cls-19"><path class="cls-24" d="M661,75.78V73.13H651.3v2.65h-6.76v13H667.7v-13Zm-8.45-1.69h7.24v1.69H652.5Z"/></g><rect class="cls-25" x="645.53" y="76.22" width="21.21" height="11.93"/><polygon class="cls-25" points="651.71 73.79 651.71 76.88 652.82 76.88 652.82 74.67 659.44 74.67 659.44 76.88 660.55 76.88 660.55 73.79 651.71 73.79"/><g class="cls-26"><rect class="cls-10" x="646.74" y="97.43" width="19.66" height="2.65"/></g><rect class="cls-27" x="639.34" y="102.29" width="33.58" height="2.65"/><g class="cls-19"><rect class="cls-28" x="710.1" y="18.04" width="122.84" height="144.32"/></g><rect class="cls-16" x="713.87" y="20.36" width="116.45" height="138.81"/><g class="cls-19"><path class="cls-29" d="M778.42,42.44V39H765.75v3.49h-8.88V59.57h30.45V42.44Zm-11.1-2.22h9.52v2.22h-9.52Z"/></g><rect class="cls-10" x="758.16" y="43.01" width="27.88" height="15.68"/><polygon class="cls-10" points="766.29 39.82 766.29 43.88 767.74 43.88 767.74 40.98 776.45 40.98 776.45 43.88 777.9 43.88 777.9 39.82 766.29 39.82"/><rect class="cls-13" x="731.29" y="81.26" width="81.89" height="3.48"/><rect class="cls-13" x="731.29" y="104.2" width="81.89" height="3.48"/><rect class="cls-13" x="731.29" y="110.3" width="81.89" height="3.48"/><rect class="cls-13" x="731.29" y="98.11" width="34.56" height="3.48"/><rect class="cls-30" x="787.34" y="98.11" width="25.84" height="3.48"/><rect class="cls-10" x="760.04" y="124.53" width="25.84" height="3.48"/><g class="cls-19"><rect class="cls-31" x="638.43" y="202.96" width="72.99" height="59.95"/></g><rect class="cls-32" x="639.28" y="204.09" width="71.14" height="57.82"/><rect class="cls-10" x="639.28" y="204.09" width="71.14" height="12.9"/><rect class="cls-12" x="639.28" y="204.09" width="71.14" height="12.9"/><rect class="cls-13" x="644.95" y="221.66" width="59.81" height="7.51"/><rect class="cls-13" x="644.95" y="234.84" width="43.65" height="2.55"/><rect class="cls-13" x="644.95" y="239.24" width="28.34" height="2.55"/><rect class="cls-13" x="644.95" y="243.63" width="37.41" height="2.55"/><rect class="cls-13" x="644.95" y="248.02" width="43.65" height="2.55"/><rect class="cls-13" x="644.95" y="252.42" width="14.6" height="2.55"/><g class="cls-19"><rect class="cls-33" x="592.73" y="180.97" width="90.46" height="74.3"/></g><rect class="cls-16" x="593.78" y="182.37" width="88.18" height="71.67"/><rect class="cls-10" x="593.78" y="182.37" width="88.18" height="15.98"/><rect class="cls-21" x="600.81" y="204.16" width="74.13" height="9.31"/><rect class="cls-13" x="600.81" y="220.49" width="54.1" height="3.16"/><rect class="cls-13" x="600.81" y="225.94" width="35.13" height="3.16"/><rect class="cls-13" x="600.81" y="231.38" width="46.37" height="3.16"/><rect class="cls-13" x="600.81" y="236.83" width="54.1" height="3.16"/><rect class="cls-13" x="600.81" y="242.27" width="18.09" height="3.16"/><rect class="cls-34" x="604.67" y="207.32" width="21.08" height="2.81"/><circle class="cls-18" cx="469.37" cy="366.07" r="12.21"/><circle class="cls-18" cx="492.06" cy="326.81" r="12.21"/></svg>